<svg xmlns="http://www.w3.org/2000/svg" width="256" height="256" viewBox="0 0 256 256">
  <!-- Material Icons all_inclusive_rounded, Apache-2.0; see LICENSE.material-icons. -->
  <rect width="256" height="256" rx="58" fill="#22252b"/>
  <path d="M 193.625 86.75 C 177.875 82.25 161.375 86.375 150.5 97.25 C 150.5 97.25 128 117.125 128 117.125 C 128 117.125 116 128 116 128 C 116 128 94.25 147.125 94.25 147.125 C 87.875 153.5 78.875 156.5 69.5 154.625 C 59.375 152.375 51.125 144.5 48.875 134.375 C 44.75 116.75 58.25 101 75.125 101 C 82.625 101 89.375 103.625 94.625 109.25 C 94.625 109.25 98.375 112.625 98.375 112.625 C 101.375 115.25 106.25 115.25 109.25 112.625 C 112.625 109.25 112.625 103.625 109.25 100.625 C 109.25 100.625 105.875 97.625 105.875 97.625 C 97.625 89.375 86.75 84.875 75.125 84.875 C 51.5 84.875 32 104.375 32 128 C 32 151.625 51.5 171.125 75.125 171.125 C 86.75 171.125 97.625 166.625 105.5 158.75 C 105.5 158.75 128 138.875 128 138.875 C 128 138.875 140 128 140 128 C 140 128 161.75 108.875 161.75 108.875 C 168.125 102.5 177.125 99.5 186.5 101.375 C 196.625 103.625 204.875 111.5 207.125 121.625 C 211.25 139.25 197.75 155 180.875 155 C 173.75 155 166.625 152.375 161.375 146.75 C 161.375 146.75 157.625 143.375 157.625 143.375 C 154.25 140.75 149.75 140.75 146.75 143.375 C 143.375 146.75 143.375 152.375 146.75 155.375 C 146.75 155.375 150.125 158.375 150.125 158.375 C 158.375 166.625 169.25 171.125 180.875 171.125 C 206.75 171.125 227.75 147.875 223.25 120.875 C 221 105.125 209.375 91.625 193.625 86.75 Z" fill="#9cb6ff"/>
</svg>
